<?xml version="1.0" encoding="UTF-8" standalone="no"?><!DOCTYPE svg PUBLIC "-//W3C//DTD SVG 1.1//EN" "http://www.w3.org/Graphics/SVG/1.1/DTD/svg11.dtd"><svg width="100%" height="100%" viewBox="0 0 1871 1503" version="1.1" xmlns="http://www.w3.org/2000/svg" xmlns:xlink="http://www.w3.org/1999/xlink" xml:space="preserve" xmlns:serif="http://www.serif.com/" style="fill-rule:evenodd;clip-rule:evenodd;stroke-miterlimit:1.5;"><rect x="0" y="0" width="1871" height="1503" style="fill:#cfd8dc;stroke:#000;stroke-width:1.5px;"/><g id="basic-map" serif:id="basic map"><path d="M616.407,258.911l-2.245,9.06l-53.872,-13.348l-65.791,238.617l-8.998,-2.48l68.209,-247.383l62.697,15.534Z"/><path d="M438,680l-5,20" style="fill:none;stroke:#000;stroke-width:9.33px;stroke-linejoin:round;"/><path d="M431,708l-26,107" style="fill:none;stroke:#000;stroke-width:9.33px;stroke-linejoin:round;"/><path d="M406.946,824.658l-1.385,8.306l727.179,171.159l19.312,-118.765l7.896,1.284l-20.688,127.235l-742.821,-174.841l2.615,-15.694l7.892,1.316Z"/><path d="M1068,441l-20,106" style="fill:none;stroke:#000;stroke-width:8px;stroke-linejoin:round;"/><path d="M1034,627l-6,31" style="fill:none;stroke:#000;stroke-width:8px;stroke-linejoin:round;"/><path d="M1000,763l-6,30" style="fill:none;stroke:#000;stroke-width:8px;stroke-linejoin:round;"/><path d="M988,894l-16,76" style="fill:none;stroke:#000;stroke-width:8px;stroke-linejoin:round;"/><path d="M625.129,265.88l383.363,94.985" style="fill:none;stroke:#000;stroke-width:9.33px;stroke-linejoin:round;"/><path d="M1092,389l55,13l0,173l12,4l8,157l-17,150l11,0l22,-150l-10,-170l-11,-3l-3,-171l-64.535,-15.125l-2.465,12.125Z" style="fill:none;stroke:#000;stroke-width:1.5px;stroke-linecap:round;stroke-linejoin:round;"/><path d="M1036.5,242l-14.217,85.436" style="fill:none;stroke:#000;stroke-width:0.5px;"/><path d="M1104.06,251l-14.429,86.713" style="fill:none;stroke:#000;stroke-width:0.5px;"/><path d="M753,302l-32,137l-37,-8l-39.109,161.595l11.109,2.405l-17,76l-12.011,-2.954l0.011,-0.046l-6.37,-1.518l6.359,1.564l-48.989,208.954l-6,-2l66,-283l40,-169l39,9l31,-131l5,1Zm-179.229,572.009l3.144,1.048l48.275,-205.908l-3.444,-0.847l-47.975,205.707Zm48.658,-208.64l6.373,1.518l-0.014,0.057l9.083,2.234l16.336,-73.032l-8.203,-1.775l0,0l-6.679,-1.446l-16.896,72.444Zm22.462,-72.774l-6.689,-1.448l6.689,1.448Zm-4.877,-2.591l3.763,0.815l38.607,-159.517l-3.584,-5.168l-38.786,163.87Zm44.881,-160.345l33.133,7.164l-2.005,-3.509l-34.041,-7.856l2.913,4.201Zm33.701,2.111l1.812,3.17l30.779,-131.773l-2.061,-0.412l-30.53,129.015Z"/><path d="M986,791l26,6l-19,98l-26,-6l19,-98Z" style="fill:none;stroke:#000;stroke-width:1.5px;"/><path d="M459,843l3,-17l16,3l-3,17l-16,-3Z" style="fill:none;stroke:#000;stroke-width:1.5px;"/><g><path d="M516,779l3,-53" style="fill:none;stroke:#000;stroke-width:1.5px;"/><path d="M526,729l-1,37l17,0l1,-37l-17,0Z" style="fill:none;stroke:#000;stroke-width:1.5px;"/></g><path d="M1056,549l-15,79l-23,-4l1,-3l-3,-1l15,-71l2,1l1,-5l22,4Z" style="fill:none;stroke:#000;stroke-width:1.5px;"/><g><path d="M549,439l14,4l6,-19l-14,-4l-6,19Z" style="fill:none;stroke:#000;stroke-width:1.5px;"/><path d="M550,436l-5,-1l4,-13l5,1l-1,3l-4.915,-1.027l-2.187,7.108l5.102,0.919l-1,3Z" style="fill:none;stroke:#000;stroke-width:1.5px;"/></g><path d="M730,671l35,9l9,-36l-35,-9l-9,36Z" style="fill:none;stroke:#000;stroke-width:1.5px;"/><path d="M742,694l10.287,3.068l-9.287,34.932l-10,-3l9,-35Z" style="fill:none;stroke:#000;stroke-width:1.5px;"/><path d="M821,681l3,-14l15,4l-3,14l-15,-4Z" style="fill:none;stroke:#000;stroke-width:1.5px;"/><path d="M716,884l2,-12l24,4l-2,12l-24,-4Z" style="fill:none;stroke:#000;stroke-width:1.5px;"/><path d="M797,902l15,4l-4,17l-15,-4l4,-17Z" style="fill:none;stroke:#000;stroke-width:1.5px;"/><path d="M1081,804l5,-30l22,5l-5,29l-22,-4Z" style="fill:none;stroke:#000;stroke-width:1.5px;"/><path d="M1093,709l32,6l7,-35l-33,-6l-6,35Z" style="fill:none;stroke:#000;stroke-width:1.5px;"/><circle cx="1156" cy="737" r="11" style="fill:none;stroke:#000;stroke-width:1.5px;"/><circle cx="710.5" cy="824.5" r="15.5" style="fill:none;stroke:#000;stroke-width:1.5px;"/><path d="M701,822c0,0 2.822,-9.636 14,-7" style="fill:none;stroke:#000;stroke-width:1.5px;"/><path d="M707,834c0,0 10.619,3.516 14,-7" style="fill:none;stroke:#000;stroke-width:1.5px;"/><path d="M720,812c3,-3 9,-9 9,-9l11,25l-14,0" style="fill:none;stroke:#000;stroke-width:1.5px;"/><path d="M749,867l-1,4l3,1" style="fill:none;stroke:#000;stroke-width:1.5px;"/><path d="M755,873l3,0" style="fill:none;stroke:#000;stroke-width:1.5px;"/><path d="M762,874l4,0l1,-4" style="fill:none;stroke:#000;stroke-width:1.5px;"/><path d="M768,866l1,-3" style="fill:none;stroke:#000;stroke-width:1.5px;"/><path d="M769,860l1,-4l-17.713,-4l-1.287,3" style="fill:none;stroke:#000;stroke-width:1.5px;"/><path d="M750,860l0,2" style="fill:none;stroke:#000;stroke-width:1.5px;"/><path d="M823,901l2,-7l15,3l0,4l4,1l0,5" style="fill:none;stroke:#000;stroke-width:1.5px;"/><path d="M842,912l0,2l-3,0" style="fill:none;stroke:#000;stroke-width:1.5px;"/><path d="M835,913l-6,-1" style="fill:none;stroke:#000;stroke-width:1.5px;"/><path d="M825,911l-4,-1l1,-3" style="fill:none;stroke:#000;stroke-width:1.5px;"/><path d="M93,748l11,28l28,-13l-11,-26l-28,11Z" style="fill:none;stroke:#000;stroke-width:1.5px;"/><path d="M62,677l10,3" style="fill:none;stroke:#000;stroke-width:1.5px;"/><path d="M270,667l-2,-11l5,-2" style="fill:none;stroke:#000;stroke-width:1.5px;"/><path d="M240,652l9,35" style="fill:none;stroke:#000;stroke-width:1.5px;"/><path d="M386,561l1,-4l22,6l-7,31l-16,-4l0,-4l-6,-1l1,-3l5,-21Z" style="fill:none;stroke:#000;stroke-width:1.5px;"/><path d="M385.836,561.688l-4.836,-0.688l-1,3l5,0l-4,15l-5,0l0,2l5,1l4.836,-20.312Z" style="fill:none;stroke:#000;stroke-width:1.5px;"/><path d="M381.2,564l-3.682,15" style="fill:none;stroke:#000;stroke-width:1.5px;"/><path d="M370,360l3,-13l12,3l-2,12l-13,-2Z" style="fill:none;stroke:#000;stroke-width:1.5px;"/><path d="M396,274l4,-18l13,3l-3,17l-14,-2Z" style="fill:none;stroke:#000;stroke-width:1.5px;"/><path d="M435,216l5,-22l5,1l1,-6l9,1l-7,29l-13,-3Z" style="fill:none;stroke:#000;stroke-width:1.5px;"/><path d="M453,149l6,-23l17,4l-5,23l-18,-4Z" style="fill:none;stroke:#000;stroke-width:1.5px;"/><path d="M510,26l-3,6l4,3l-2,3l10,5l5,-11l-14,-6Z" style="fill:none;stroke:#000;stroke-width:1.5px;"/><path d="M93,631l100,13l69,130l-39,27l-72,-72l-58,-98Z" style="fill:none;stroke:#000;stroke-width:1.5px;"/><path d="M301,758l21,-52l30,12l-10,25l42,18l-11,27l-72,-30Z" style="fill:none;stroke:#000;stroke-width:1.5px;"/><path d="M337.139,712.056l-14.139,37.944l56,24" style="fill:none;stroke:#000;stroke-width:1.5px;"/><path d="M343,743l-42,15" style="fill:none;stroke:#000;stroke-width:1.5px;"/><path d="M923,192l24,5l14,-51l-26,-5l-12,51Z" style="fill:none;stroke:#000;stroke-width:1.5px;"/><path d="M924.435,185.901l-3.435,-0.901l10,-40l3,1l-9.565,39.901Z" style="fill:none;stroke:#000;stroke-width:1.5px;"/><path d="M919,216l1,-7l22,5l-4,16l12,1.44l-5,25.56l-13,-2l-3,13l-22,-5l2,-6" style="fill:none;stroke:#000;stroke-width:1.5px;"/><path d="M919,215l-10,42l-5,0l10,-42l5,0Z" style="fill:none;stroke:#000;stroke-width:0.75px;"/><path d="M913.21,218.319l5.01,-0.042" style="fill:none;stroke:#000;stroke-width:0.75px;"/><path d="M905,253l5,0" style="fill:none;stroke:#000;stroke-width:0.75px;"/><path d="M944,236l-3,15l-5,0l3,-15l5,0Z" style="fill:none;stroke:#000;stroke-width:0.75px;"/><path d="M1398,431l13,5l7,-22l10,3l4,-12l-10,-3l6,-21l-13,-4l-17,54Z" style="fill:none;stroke:#000;stroke-width:1.5px;"/><path d="M1359,401l-1,6l22,6l5,-13l13,3l8,-26l-13,-3l5,-16l-24,-6l-1,6" style="fill:none;stroke:#000;stroke-width:1.5px;"/><path d="M1373,358l-13,43l-6,-1l13,-43l6,1Z" style="fill:none;stroke:#000;stroke-width:0.75px;"/><path d="M1355.11,396.324l6.122,0.599" style="fill:none;stroke:#000;stroke-width:0.75px;"/><path d="M1366,361l6,1" style="fill:none;stroke:#000;stroke-width:0.75px;"/><g><path d="M1772,996l31,1l0,35l-32,-1l1,-35Z" style="fill:none;stroke:#000;stroke-width:1.5px;"/><path d="M1779,1003l16,0l0,21l-16,-1l0,-20Z" style="fill:none;stroke:#000;stroke-width:1.5px;"/><path d="M1772,996l7,7" style="fill:none;stroke:#000;stroke-width:1.5px;"/><path d="M1795,1003l8,-7" style="fill:none;stroke:#000;stroke-width:1.5px;"/><path d="M1795,1024l8,8" style="fill:none;stroke:#000;stroke-width:1.5px;"/><path d="M1779,1023l-8,8" style="fill:none;stroke:#000;stroke-width:1.5px;"/></g><path d="M1386,294l-4,24l15,3l4,-24l-15,-3Z" style="fill:none;stroke:#000;stroke-width:1.5px;"/><path d="M1392,276l14,3l6,-24l-14,-3l-6,24Z" style="fill:none;stroke:#000;stroke-width:1.5px;"/><path d="M1303,205l23,1l-1,24l-13,-1l-1,13l-11,-1l3,-36Z" style="fill:none;stroke:#000;stroke-width:1.5px;"/><path d="M1439,270l8,3l10,-24l-8,-4l-10,25Z" style="fill:none;stroke:#000;stroke-width:1.5px;"/><path d="M1421,296l-1,13l9,1l1,-6l103,11l0,7l12,0l0,-13l-124,-13Z" style="fill:none;stroke:#000;stroke-width:1.5px;"/><path d="M1629,467l11,-32l24,9l-9,33l-26,-10Z" style="fill:none;stroke:#000;stroke-width:1.5px;"/><path d="M1038.4,242.542l-13.295,80.645" style="fill:none;stroke:#000;stroke-width:0.5px;"/><path d="M1105.96,251.542l-14.206,86.171" style="fill:none;stroke:#000;stroke-width:0.5px;"/><path d="M1040.47,242.824l-13.31,80.859" style="fill:none;stroke:#000;stroke-width:0.5px;"/><path d="M1108.03,251.824l-14.195,86.236" style="fill:none;stroke:#000;stroke-width:0.5px;"/><path d="M1043.04,243.078l-13.601,81.181" style="fill:none;stroke:#000;stroke-width:0.5px;"/><path d="M1110.6,252.078l-14.49,86.481" style="fill:none;stroke:#000;stroke-width:0.5px;"/><g><path d="M944,750l102,21l23,-103l-103,-22l-22,104Z" style="fill:none;stroke:#000;stroke-width:1.5px;"/><path d="M1031.68,434.441l-0.507,7.955l-35.035,-6.939l17.861,-108.318l9.557,1.016l0.339,-5.078l7.955,1.524l14.149,-81.238l-17.065,-2.046l8.62,-55.822l86.704,12.51l-9.042,54.532l-14.02,-2.098l-14.35,86.793l11.508,1.664l-0.555,3.535l-11.507,-0.901l-0.208,4.714l-17.085,-2.357l15.269,-105.569l21.949,2.645l5.818,-34.378l-64.846,-8.922l-6.19,33.622l23.59,3.466l-15.59,104.4l-24.895,-3.743l-7.105,34.273l16.284,3.051l1.047,-4.053l6.669,1.375l-1.212,5.324l17.836,3.55l1.109,-5.635l6.98,1.53l-0.887,5.158l18.087,2.851l7.583,-36.755l10.29,1.218l-20.444,94.643l-45.342,-7.583l0,-8.394l40.603,6.905l4.601,-26.81l-13.125,-2.036l0.806,-5.274l13.54,1.76l1.489,-9.342l-19.768,-2.633l-2.146,14.819l-8.144,-1.084l-0.307,4.664l-3.331,-0.245l0.232,-2.347l-12.173,-2.518l-0.7,2.605l-3.107,-0.661l0.48,-2.689l-6.95,-1.436l3.158,-19.389l-17.158,-2.709l-8.297,51.561l26.978,5.339Z" style="fill:none;stroke:#000;stroke-width:1.5px;"/><path d="M989,687l-7,34l37,7l8,-34l-38,-7Z" style="fill:none;stroke:#000;stroke-width:1.5px;"/><path d="M966,646l23,41" style="fill:none;stroke:#000;stroke-width:0.9px;"/><path d="M1027,694l42,-26" style="fill:none;stroke:#000;stroke-width:0.9px;"/><path d="M1019,728l27,43" style="fill:none;stroke:#000;stroke-width:0.9px;"/><path d="M944,750l38,-29" style="fill:none;stroke:#000;stroke-width:0.9px;"/><path d="M990,687l7,-35" style="fill:none;stroke:#000;stroke-width:0.9px;"/><path d="M1001,653l-7,35" style="fill:none;stroke:#000;stroke-width:0.9px;"/><path d="M1014,656l-7,34" style="fill:none;stroke:#000;stroke-width:0.9px;"/><path d="M1018,657l-7,34" style="fill:none;stroke:#000;stroke-width:0.9px;"/><path d="M959,680l30,7" style="fill:none;stroke:#000;stroke-width:0.9px;"/><path d="M958,684l30,7" style="fill:none;stroke:#000;stroke-width:0.9px;"/><path d="M983,716l-31,-5" style="fill:none;stroke:#000;stroke-width:0.9px;"/><path d="M951,716l31,5" style="fill:none;stroke:#000;stroke-width:0.9px;"/><path d="M982,721l-8,35" style="fill:none;stroke:#000;stroke-width:0.9px;"/><path d="M986,722l-8,35" style="fill:none;stroke:#000;stroke-width:0.9px;"/><path d="M1061,673l-44,-10l44,10Z" style="fill:none;stroke:#000;stroke-width:0.9px;"/><path d="M1041,763l20,-90l-20,90Z" style="fill:none;stroke:#000;stroke-width:0.9px;"/><path d="M997,754l44,9" style="fill:none;stroke:#000;stroke-width:0.9px;"/><path d="M1037,756l-39,-8l39,8Z" style="fill:none;stroke:#000;stroke-width:0.9px;"/><path d="M1056,676l-19,80l19,-80Z" style="fill:none;stroke:#000;stroke-width:0.9px;"/><path d="M1016,667l40,9" style="fill:none;stroke:#000;stroke-width:0.9px;"/><path d="M1015,672l34,8l-17,69l-33,-6" style="fill:none;stroke:#000;stroke-width:0.9px;"/><path d="M1000,737l28,5l14,-57.75l-28,-6.25" style="fill:none;stroke:#000;stroke-width:0.9px;"/><path d="M1012,684l23,5l-11,47l-23,-4" style="fill:none;stroke:#000;stroke-width:0.9px;"/><path d="M975,720l-1,7l6,1" style="fill:none;stroke:#000;stroke-width:0.9px;"/><path d="M970,719l-2,13l11,1" style="fill:none;stroke:#000;stroke-width:0.9px;"/><path d="M965,718.5l-3,17.5l16,2" style="fill:none;stroke:#000;stroke-width:0.9px;"/><path d="M961,718l-4,22l20,3" style="fill:none;stroke:#000;stroke-width:0.9px;"/><path d="M976,749l-25,-4l5,-28" style="fill:none;stroke:#000;stroke-width:0.5px;"/><path d="M995,685l13,2" style="fill:none;stroke:#000;stroke-width:0.5px;"/><path d="M978.712,754.395l12.892,2.605" style="fill:none;stroke:#000;stroke-width:0.5px;"/><path d="M995,683l13,2" style="fill:none;stroke:#000;stroke-width:0.5px;"/><path d="M978.806,752.397l12.892,2.605" style="fill:none;stroke:#000;stroke-width:0.5px;"/><path d="M995,681l13,2" style="fill:none;stroke:#000;stroke-width:0.5px;"/><path d="M979.899,750.399l12.892,2.605" style="fill:none;stroke:#000;stroke-width:0.5px;"/><path d="M1009,681l-13,-2" style="fill:none;stroke:#000;stroke-width:0.5px;"/><path d="M992.884,751.053l-12.893,-2.605" style="fill:none;stroke:#000;stroke-width:0.5px;"/><path d="M996,677l13,2" style="fill:none;stroke:#000;stroke-width:0.5px;"/><path d="M980.085,746.45l12.892,2.605" style="fill:none;stroke:#000;stroke-width:0.5px;"/><path d="M1010,677l-13,-2" style="fill:none;stroke:#000;stroke-width:0.5px;"/><path d="M994.07,747.104l-12.893,-2.605" style="fill:none;stroke:#000;stroke-width:0.5px;"/><path d="M997,673l13,2" style="fill:none;stroke:#000;stroke-width:0.5px;"/><path d="M981.271,742.501l12.892,2.606" style="fill:none;stroke:#000;stroke-width:0.5px;"/><path d="M1010.5,673l-13.5,-2" style="fill:none;stroke:#000;stroke-width:0.5px;"/><path d="M994.756,743.132l-13.392,-2.629" style="fill:none;stroke:#000;stroke-width:0.5px;"/><path d="M1011,671l-13,-2" style="fill:none;stroke:#000;stroke-width:0.5px;"/><path d="M995.349,741.158l-12.892,-2.606" style="fill:none;stroke:#000;stroke-width:0.5px;"/><path d="M1011,669l-13,-2" style="fill:none;stroke:#000;stroke-width:0.5px;"/><path d="M995.442,739.16l-12.892,-2.606" style="fill:none;stroke:#000;stroke-width:0.5px;"/><path d="M999,665l13,2" style="fill:none;stroke:#000;stroke-width:0.5px;"/><path d="M983.247,734.58l12.892,2.605" style="fill:none;stroke:#000;stroke-width:0.5px;"/><path d="M999,663l13,2" style="fill:none;stroke:#000;stroke-width:0.5px;"/><path d="M983.736,732.606l12.892,2.605" style="fill:none;stroke:#000;stroke-width:0.5px;"/><path d="M1013,663l-14,-2" style="fill:none;stroke:#000;stroke-width:0.5px;"/><path d="M997.453,733.213l-13.891,-2.652" style="fill:none;stroke:#000;stroke-width:0.5px;"/><path d="M1013,661l-13,-2" style="fill:none;stroke:#000;stroke-width:0.5px;"/><path d="M997.814,731.262l-12.892,-2.605" style="fill:none;stroke:#000;stroke-width:0.5px;"/><path d="M1000,657l13,2" style="fill:none;stroke:#000;stroke-width:0.5px;"/><path d="M985.015,726.659l12.893,2.605" style="fill:none;stroke:#000;stroke-width:0.5px;"/><path d="M1001,655l13,2" style="fill:none;stroke:#000;stroke-width:0.5px;"/><path d="M985.456,724.708l12.893,2.605" style="fill:none;stroke:#000;stroke-width:0.5px;"/><path d="M984.786,690.25l-4.948,25.24" style="fill:none;stroke:#000;stroke-width:0.5px;"/><path d="M974.883,688.298l-4.947,25.24" style="fill:none;stroke:#000;stroke-width:0.5px;"/><path d="M964.885,685.625l-5.214,26.602" style="fill:none;stroke:#000;stroke-width:0.5px;"/><path d="M977.147,715.067l5.076,-25.449" style="fill:none;stroke:#000;stroke-width:0.5px;"/><path d="M967.245,713.115l5.075,-25.449" style="fill:none;stroke:#000;stroke-width:0.5px;"/><path d="M956.98,711.804l5.337,-26.763" style="fill:none;stroke:#000;stroke-width:0.5px;"/><path d="M979.838,688.944l-5.317,25.59" style="fill:none;stroke:#000;stroke-width:0.5px;"/><path d="M969.936,686.991l-5.318,25.591" style="fill:none;stroke:#000;stroke-width:0.5px;"/><path d="M959.936,684.405l-5.583,26.867" style="fill:none;stroke:#000;stroke-width:0.5px;"/><path d="M971.965,714.179l5.537,-25.679" style="fill:none;stroke:#000;stroke-width:0.5px;"/><path d="M962.063,712.227l5.537,-25.679" style="fill:none;stroke:#000;stroke-width:0.5px;"/><path d="M951.798,710.917l5.537,-25.68" style="fill:none;stroke:#000;stroke-width:0.5px;"/></g><g><path d="M460,486l95,23l-9,43l-12,-3l-1,4l13,3l-4,22l-18,-3l-16,72l18,4l-10,47l-100,-25l10,-44l11,3l22,-92l-11,-3l12,-51Z" style="fill:none;stroke:#000;stroke-width:1.5px;"/><path d="M465,493l-8,33l27,6l-25,110l-28,-6l-8,34l89,21l8,-35l-30,-7l24,-110l27,6l7,-31l-83,-21Z" style="fill:none;stroke:#000;stroke-width:1.5px;"/><path d="M529,584l-12,57l12,2l1,-4l1,0l0,-2l3,-1l10,-50l-15,-2Z" style="fill:none;stroke:#000;stroke-width:1.5px;"/></g><g><path d="M786,479l7,-24l24,7l-7,24l-24,-7Z" style="fill:none;stroke:#000;stroke-width:1.5px;"/><path d="M787,475l-5,-1l5,-17l5,1l-1,4l-5.092,-1.288l-1.407,4.785l4.499,1.503l-1,4l-4,-1l4,1l-1,4Z" style="fill:none;stroke:#000;stroke-width:1.5px;"/><path d="M798,456l1,-5l17,5l-2,5l-4,-1l2.11,-5.144l-5.391,-1.586l-1.719,4.73l-4,-1l1.547,-4.957l-1.547,4.957l-3,-1Z" style="fill:none;stroke:#000;stroke-width:1.5px;"/><path d="M816,465l6,2l-5,17l-6,-2l1,-4l6.236,1.799l1.411,-4.799l-5.647,-2l1,-4l5.841,1.941l-5.841,-1.941l1,-4Z" style="fill:none;stroke:#000;stroke-width:1.5px;"/><path d="M791,481l-1,4l14,4l1,-4l-4,-1l-0.939,3.875l-5.613,-1.604l1.552,-4.271l-5,-1Z" style="fill:none;stroke:#000;stroke-width:1.5px;"/></g><path d="M999,724l-8,36" style="fill:none;stroke:#000;stroke-width:0.9px;"/><path d="M1003,725l-8,36" style="fill:none;stroke:#000;stroke-width:0.9px;"/><path d="M970,653l26,5l-26,-5Z" style="fill:none;stroke:#000;stroke-width:0.9px;"/><path d="M964,681l6,-28" style="fill:none;stroke:#000;stroke-width:0.9px;"/><path d="M968,682.5l5,-24.5l22,5" style="fill:none;stroke:#000;stroke-width:0.9px;"/><path d="M994,668l-18,-4l-3,19.25" style="fill:none;stroke:#000;stroke-width:0.9px;"/><path d="M978,684.25l2,-13.25l13,2" style="fill:none;stroke:#000;stroke-width:0.9px;"/><path d="M992,679l-8,-1l-1,7.625" style="fill:none;stroke:#000;stroke-width:0.9px;"/><path d="M378.741,313.408l-0.383,3.363l2.842,0.32" style="fill:none;stroke:#000;stroke-opacity:0.15;stroke-width:1.5px;"/><path d="M378.477,313.895l-0.499,2.884l3.222,0.312" style="fill:none;stroke:#000;stroke-width:1.5px;"/><path d="M380,308.627l0,-4.16" style="fill:none;stroke:#000;stroke-width:1.5px;"/><path d="M382.082,299.92l0.166,-2.662l3.588,0.499" style="fill:none;stroke:#000;stroke-width:1.5px;"/><path d="M391.787,299.92l2.274,0l-0.111,3.66" style="fill:none;stroke:#000;stroke-width:1.5px;"/><path d="M393.229,307.85l-1.442,3.55" style="fill:none;stroke:#000;stroke-width:1.5px;"/><path d="M391.044,317.091l-0.144,1.629l-4.326,0.111" style="fill:none;stroke:#000;stroke-width:1.5px;"/><path d="M395.396,201.909l-1.335,5.823l3.387,1.268" style="fill:none;stroke:#000;stroke-width:1.5px;"/><path d="M402.772,210.061l3.605,1.497" style="fill:none;stroke:#000;stroke-width:1.5px;"/><path d="M411.535,212.723l3.715,1.054l1.775,-4.777" style="fill:none;stroke:#000;stroke-width:1.5px;"/><path d="M418.023,203.24l1.498,-3.883" style="fill:none;stroke:#000;stroke-width:1.5px;"/><path d="M420.907,193.534l0.832,-2.218l-3.716,-1.775" style="fill:none;stroke:#000;stroke-width:1.5px;"/><path d="M409,186.824l3.089,1.442" style="fill:none;stroke:#000;stroke-width:1.5px;"/><path d="M403.271,185.901l-2.828,-1.074l-1.497,3.439" style="fill:none;stroke:#000;stroke-width:1.5px;"/><path d="M398.058,193.479l-1.275,4.159" style="fill:none;stroke:#000;stroke-width:1.5px;"/><path d="M1464.87,1231.37l11.178,18.544l-8.405,28.162l28.856,8.319l8.145,-29.029l17.157,-10.485l-15.77,57.191l-9.532,-17.677l9.532,17.677l-56.672,-15.164l18.284,-10.832l-18.284,10.832l15.511,-57.538Z" style="fill:none;stroke:#000;stroke-width:1.5px;"/><path d="M1476.06,1250.01l28.578,7.347l-28.578,-7.347Z" style="fill:none;stroke:#000;stroke-width:1.5px;"/><path d="M1522.12,1246.54l-57.256,-15.614" style="fill:none;stroke:#000;stroke-width:1.5px;"/><path d="M1280.26,779l-3.25,14l14.759,2.809l2.707,-14.081l-14.216,-2.728Z" style="fill:none;stroke:#000;stroke-width:1.5px;"/><path d="M1714.58,1478.94l5.806,-18.284l19.323,7.019l-4.766,18.024l-20.363,-6.759Z" style="fill:none;stroke:#000;stroke-width:1.5px;"/><path d="M1751.78,1429.21l6.239,-19.687l20.243,6.377l-5.2,20.312l-21.282,-7.002Z" style="fill:none;stroke:#000;stroke-width:1.5px;"/><path d="M1789.83,1309.31l23.57,7.542l-11.314,41.039l-23.822,-6.377l11.566,-42.204Z" style="fill:none;stroke:#000;stroke-width:1.5px;"/><path d="M1794.16,1320.9l8.844,3.216l-5.738,19.688l-9.095,-2.662l5.989,-20.242Z" style="fill:none;stroke:#000;stroke-width:1.5px;"/><path d="M1789.78,1309.31l4.381,11.591" style="fill:none;stroke:#000;stroke-width:1.5px;"/><path d="M1803,1324.11l10.401,-7.209" style="fill:none;stroke:#000;stroke-width:1.5px;"/><path d="M1778.27,1351.51l9.902,-10.538" style="fill:none;stroke:#000;stroke-width:1.5px;"/><path d="M1797.26,1343.8l4.77,14.086" style="fill:none;stroke:#000;stroke-width:1.5px;"/><path d="M1546.81,1394.25l17.331,4.419l15.165,-54.866l11.151,2.357l9.14,-36.852l-9.478,-3.767l17.263,-66.006l-22.34,-5.585l-15.232,65.837l-10.494,-2.708l-9.647,37.234l11.171,3.723l-14.03,56.214Z" style="fill:none;stroke:#000;stroke-width:1.5px;"/><path d="M1565.07,1336.51l-13.371,54.328l10.324,3.554l13.371,-55.682l-10.324,-2.2Z" style="fill:none;stroke:#000;stroke-width:1.5px;"/><path d="M1546.81,1394.39l4.89,-3.554" style="fill:none;stroke:#000;stroke-width:1.5px;"/><path d="M1562.07,1394.39l1.996,4.274" style="fill:none;stroke:#000;stroke-width:1.5px;"/><path d="M1575.4,1338.56l4.084,5.239" style="fill:none;stroke:#000;stroke-width:1.5px;"/><path d="M1560.68,1338.56l4.548,-2.051" style="fill:none;stroke:#000;stroke-width:1.5px;"/><path d="M1549.76,1334.35l15.473,-8.263" style="fill:none;stroke:#000;stroke-width:1.5px;"/><path d="M1568.67,1313.05l-9.261,-15.972" style="fill:none;stroke:#000;stroke-width:1.5px;"/><path d="M1568.67,1313.05l-3.438,13.033l15.14,4.104l3.272,-13.284l-14.974,-3.853Z" style="fill:none;stroke:#000;stroke-width:1.5px;"/><path d="M1599.78,1309.31l-16.138,7.598" style="fill:none;stroke:#000;stroke-width:1.5px;"/><path d="M1580.37,1330.19l10.093,15.805" style="fill:none;stroke:#000;stroke-width:1.5px;"/><path d="M1572.43,1305.07l13.394,4.241l15.655,-65.717l-13.539,-3.808l-15.51,65.284Z" style="fill:none;stroke:#000;stroke-width:1.5px;"/><path d="M1569.79,1299.58l2.64,5.488" style="fill:none;stroke:#000;stroke-width:1.5px;"/><path d="M1585.76,1309.31l4.7,-3.795" style="fill:none;stroke:#000;stroke-width:1.5px;"/><path d="M1585.15,1233.95l2.939,5.833" style="fill:none;stroke:#000;stroke-width:1.5px;"/><path d="M1601.48,1243.67l5.905,-3.894" style="fill:none;stroke:#000;stroke-width:1.5px;"/><path d="M1651.34,1150.58l30.447,9.206l20.518,-75.613l-30.016,-8.426l-20.949,74.833Z" style="fill:none;stroke:#000;stroke-width:1.5px;"/><path d="M1674.88,1080.68l-18.544,67.937l22.27,6.325l18.284,-68.196l-22.01,-6.066Z" style="fill:none;stroke:#000;stroke-width:1.5px;"/><path d="M1672.37,1075.74l2.513,4.939" style="fill:none;stroke:#000;stroke-width:1.5px;"/><path d="M1696.89,1086.92l5.406,-2.859" style="fill:none;stroke:#000;stroke-width:1.5px;"/><path d="M1678.52,1154.94l3.12,4.838" style="fill:none;stroke:#000;stroke-width:1.5px;"/><path d="M1651.34,1150.44l5.005,-1.993" style="fill:none;stroke:#000;stroke-width:1.5px;"/><path d="M1581.12,988.426l24.798,5.632l5.957,-24.058l17.127,2.309l1.93,-6.399l5.82,0.425l8.412,-37.639l-0.911,-5.696l-10.707,-2.38l5.028,-26.62l-49.395,-11.713l-2.602,12.713l-8.164,-2.479l-4.673,21.479l16.724,5.437l-0.811,6.744l-5.265,-0.178l-4.017,23.958l6.797,2.426l-6.048,36.039Z" style="fill:none;stroke:#000;stroke-width:1.5px;"/><path d="M1589,981.787l10.779,2.485l4.542,-20.35l19.403,3.49l2.071,-7.867l5.56,0.473l6.093,-29.815l-13.25,-3.253l4.802,-28.336l-35.445,-8.459l-3.093,9.583l-6.821,-1.419l-4.16,12.681l16.854,4.592l-2.307,17.51l-5.324,-0.237l-1.893,12.246l7.158,2.248l-4.969,34.428Z" style="fill:none;stroke:#000;stroke-width:1.5px;"/><path d="M1581.07,988.017l7.928,-6.23" style="fill:none;stroke:#000;stroke-width:1.5px;"/><path d="M1599.78,984.272l6.139,9.786" style="fill:none;stroke:#000;stroke-width:1.5px;"/><path d="M1604.56,964.084l7.394,5.916" style="fill:none;stroke:#000;stroke-width:1.5px;"/><path d="M1623.61,966.864l4.91,5.384" style="fill:none;stroke:#000;stroke-width:1.5px;"/><path d="M1631.06,965.977l-5.147,-6.152" style="fill:none;stroke:#000;stroke-width:1.5px;"/><path d="M1631.06,959.825l5.442,6.152" style="fill:none;stroke:#000;stroke-width:1.5px;"/><path d="M1637.03,930.188l7.336,-6.921" style="fill:none;stroke:#000;stroke-width:1.5px;"/><path d="M1624.43,926.934l9.347,-6.329" style="fill:none;stroke:#000;stroke-width:1.5px;"/><path d="M1628.52,898.776l9.938,-4.776" style="fill:none;stroke:#000;stroke-width:1.5px;"/><path d="M1589,882.287l4.495,7.868" style="fill:none;stroke:#000;stroke-width:1.5px;"/><path d="M1585.76,895l4.7,4.605" style="fill:none;stroke:#000;stroke-width:1.5px;"/><path d="M1578.35,892.743l5.29,6.033" style="fill:none;stroke:#000;stroke-width:1.5px;"/><path d="M1579.48,911l-5.743,3" style="fill:none;stroke:#000;stroke-width:1.5px;"/><path d="M1590.46,919.836l5.813,-3.964" style="fill:none;stroke:#000;stroke-width:1.5px;"/><path d="M1589,926.047l5.027,6.862" style="fill:none;stroke:#000;stroke-width:1.5px;"/><path d="M1584.27,926.047l4.733,6.862" style="fill:none;stroke:#000;stroke-width:1.5px;"/><path d="M1580.2,949.888l6.389,-4.733" style="fill:none;stroke:#000;stroke-width:1.5px;"/><path d="M1587.01,952.538l7.014,-5.111" style="fill:none;stroke:#000;stroke-width:1.5px;"/><path d="M1401,979.828l3.432,-12.093l14.586,4.513l-2.599,12.024l-15.419,-4.444Z" style="fill:none;stroke:#000;stroke-width:1.5px;"/><path d="M1401,961.776l22.929,6.788l-4.911,20.796l-22.963,-6.354l4.945,-21.23Z" style="fill:none;stroke:#000;stroke-width:1.5px;"/><path d="M1404.43,967.735l-3.432,-5.959" style="fill:none;stroke:#000;stroke-width:1.5px;"/><path d="M1474.46,902l21.605,6.308l-4.852,21.88l-22.299,-6.921l5.546,-21.267Z" style="fill:none;stroke:#000;stroke-width:1.5px;"/><path d="M1478.39,907.962l-3.235,12.643l11.438,2.662l3.12,-12.267l-11.323,-3.038Z" style="fill:none;stroke:#000;stroke-width:1.5px;"/><path d="M1474.46,902l3.927,5.962" style="fill:none;stroke:#000;stroke-width:1.5px;"/><path d="M1468.92,923.267l6.239,-2.662" style="fill:none;stroke:#000;stroke-width:1.5px;"/><path d="M1486.53,923l4.827,7.188" style="fill:none;stroke:#000;stroke-width:1.5px;"/><path d="M1489.71,911l6.354,-2.505" style="fill:none;stroke:#000;stroke-width:1.5px;"/><path d="M1419.02,972.248l4.911,-3.54" style="fill:none;stroke:#000;stroke-width:1.5px;"/><path d="M1396.06,983.15l4.945,-3.322" style="fill:none;stroke:#000;stroke-width:1.5px;"/><path d="M1415.84,984.272l3.177,5.088" style="fill:none;stroke:#000;stroke-width:1.5px;"/><path d="M1512.58,851.518l15.251,4.16l3.697,-16.73l-14.511,-3.459l-4.437,16.029Z" style="fill:none;stroke:#000;stroke-width:1.5px;"/><path d="M1512.07,826.508l-7.434,30.525l26.033,7.571l8.518,-30.476l-27.117,-7.62Z" style="fill:none;stroke:#000;stroke-width:1.5px;"/><path d="M1517.09,835.489l-5.016,-8.981" style="fill:none;stroke:#000;stroke-width:1.5px;"/><path d="M1531.53,839.191l7.666,-4.626" style="fill:none;stroke:#000;stroke-width:1.5px;"/><path d="M1527.88,855.678l2.651,8.926" style="fill:none;stroke:#000;stroke-width:1.5px;"/><path d="M1504.64,857.127l7.937,-5.726" style="fill:none;stroke:#000;stroke-width:1.5px;"/><path d="M1381.11,910.752l8.519,1.988l-3.313,12.399l-8.471,-2.139l3.265,-12.248Z" style="fill:none;stroke:#000;stroke-width:1.5px;"/><path d="M1420,809.988l-8,29.203l35.571,10.017l7.512,-29.756l-35.083,-9.464Z" style="fill:none;stroke:#000;stroke-width:1.5px;"/><path d="M1408.16,792.195l66.308,16.805l-16.179,57l-64.557,-18.247l14.428,-55.558Z" style="fill:none;stroke:#000;stroke-width:1.5px;"/><path d="M1420,809.988l-11.843,-17.793" style="fill:none;stroke:#000;stroke-width:1.5px;"/><path d="M1412,839.191l-18.271,8.436" style="fill:none;stroke:#000;stroke-width:1.5px;"/><path d="M1454.79,819.505l19.678,-10.505" style="fill:none;stroke:#000;stroke-width:1.5px;"/><path d="M1447.52,849.208l10.767,16.792" style="fill:none;stroke:#000;stroke-width:1.5px;"/><path d="M1351.5,820.372l16.637,-61.466l12.201,4.094l-17.654,70.59l-25.973,-6.59l2.31,-9.586l12.479,2.958Z" style="fill:none;stroke:#000;stroke-width:1.5px;"/><path d="M1331.16,828.783l4.437,-15.528l13.957,3.05l16.444,-62.547l19.801,6.242l-19.801,77.956l-34.838,-9.173Z" style="fill:none;stroke:#000;stroke-width:1.5px;"/><path d="M1338.99,817.595l-3.393,-4.34" style="fill:none;stroke:#000;stroke-width:1.5px;"/><path d="M1336.71,827l-5.546,1.771" style="fill:none;stroke:#000;stroke-width:1.5px;"/><path d="M1362.83,833.59l3.172,4.366" style="fill:none;stroke:#000;stroke-width:1.5px;"/><path d="M1380.34,763l5.466,-3" style="fill:none;stroke:#000;stroke-width:1.5px;"/><path d="M1366,753.758l2.109,5.148" style="fill:none;stroke:#000;stroke-width:1.5px;"/><path d="M1810.73,809.988l25.996,1.56l-7.279,126.283l-27.415,-1.271l8.698,-126.572Z" style="fill:none;stroke:#000;stroke-width:1.5px;"/><path d="M1817.77,820.286l10.506,0.757l-6.153,108.515l-11.357,-0.71l7.004,-108.562Z" style="fill:none;stroke:#000;stroke-width:1.5px;"/><path d="M1810.77,809.988l7.004,10.298" style="fill:none;stroke:#000;stroke-width:1.5px;"/><path d="M1836.73,811.521l-8.448,9.8" style="fill:none;stroke:#000;stroke-width:1.5px;"/><path d="M1829.47,937.831l-7.276,-8.273" style="fill:none;stroke:#000;stroke-width:1.5px;"/><path d="M1802.03,936.556l8.736,-7.632" style="fill:none;stroke:#000;stroke-width:1.5px;"/><path d="M1319.02,710.689l29.561,6.995l31.754,-127.272l-28.291,-7.303l-33.024,127.58Z" style="fill:none;stroke:#000;stroke-width:1.5px;"/><path d="M1557.51,490.645l6.551,7.986l16.134,3.328l8.802,-4.363l15.557,-77.596l-27.301,-7l-19.743,77.645Z" style="fill:none;stroke:#000;stroke-width:1.5px;"/><path d="M1583.64,423.128l12.634,2.708l-15.906,76.123l-16.305,-3.379l19.577,-75.452Z" style="fill:none;stroke:#000;stroke-width:1.5px;"/><path d="M1577.23,413l6.412,10.128" style="fill:none;stroke:#000;stroke-width:1.5px;"/><path d="M1604.56,420l-8.282,6.041" style="fill:none;stroke:#000;stroke-width:1.5px;"/><path d="M1373,860l131.64,35l-32.657,119.154l-125.523,-34.326l26.54,-119.828Z" style="fill:none;stroke:#000;stroke-width:1.5px;"/><path d="M1366,862l-27.008,121.15l137.07,38.671l34.676,-118.17l-6.098,-8.651l-131.64,-35l-7,2Z" style="fill:none;stroke:#000;stroke-width:1.5px;"/><path d="M1510.74,904.303l28.453,6.449l-9.854,-20.597l-206.103,-58.294l-20.235,12.016l63.001,18.123" style="fill:none;stroke:#000;stroke-width:1.5px;"/><path d="M1572.43,774l-33.239,136.752l-9.948,-20.597l33.893,-124.542l9.294,8.387Z" style="fill:none;stroke:#000;stroke-width:1.5px;"/><path d="M1423.93,732l-0.879,0.575l140.086,33.038" style="fill:none;stroke:#000;stroke-width:1.5px;"/><path d="M1572.43,773.608l135.048,34.392l32.226,-137l-70.588,-17l27.779,-118.415l116.506,28.415l-11.862,220.939l44.156,7.256l-8.969,167.63l-192.357,-36.558l0.793,5.657l200.182,43.324l9.508,-187.847l-44.084,-5.401l22.713,-225.507l-244.481,-55.79" style="fill:none;stroke:#000;stroke-width:1.5px;"/><path d="M1678.52,540.714l18.371,-5.129" style="fill:none;stroke:#000;stroke-width:1.5px;"/><path d="M1415.84,473.706l-11.409,-16.977" style="fill:none;stroke:#000;stroke-width:1.5px;"/><path d="M1484.68,489l6.681,8.703" style="fill:none;stroke:#000;stroke-width:1.5px;"/><path d="M1382,587.664l73.083,12.78l29.596,-111.444l-68.838,-15.294l-33.841,113.958Z" style="fill:none;stroke:#000;stroke-width:1.5px;"/><path d="M1384.87,589.662l16.13,4.338l-54.54,217.521l-16.52,-3.521l-6.706,23.861" style="fill:none;stroke:#000;stroke-width:1.5px;"/><path d="M1303,843.789l15.285,-55.789l13.828,3l52.892,-202.937l-19.004,-4.954l38.432,-126.38l153.081,33.714" style="fill:none;stroke:#000;stroke-width:1.5px;"/><path d="M1401,594l61.854,14.899l28.506,-111.196l187.164,42.966l-27.188,123.331l69.203,16l-26.011,113.938l-259.438,-69.938l3.05,-14.969l-61.928,-16.637l50.652,22.606l-3.697,17l11.923,-8" style="fill:none;stroke:#000;stroke-width:1.5px;"/><path d="M1455.05,600.016l7.857,8.665" style="fill:none;stroke:#000;stroke-width:1.5px;"/><path d="M1318.38,788.087l11.863,20.318" style="fill:none;stroke:#000;stroke-width:1.5px;"/><path d="M1332.27,791l14.195,20.521" style="fill:none;stroke:#000;stroke-width:1.5px;"/><path d="M1471.72,1014.15l4.343,7.667l-137.07,-38.671l7.468,-3.322" style="fill:none;stroke:#000;stroke-width:1.5px;"/><path d="M1836.73,959.825l8.72,12.423" style="fill:none;stroke:#000;stroke-width:1.5px;"/><path d="M1845.45,792.195l9.406,-7.988" style="fill:none;stroke:#000;stroke-width:1.5px;"/><path d="M1801.54,784.82l9.229,-5.82" style="fill:none;stroke:#000;stroke-width:1.5px;"/><path d="M1694.4,793.938l13.124,14.062" style="fill:none;stroke:#000;stroke-width:1.5px;"/><path d="M1426.71,715l11.372,-5.976" style="fill:none;stroke:#000;stroke-width:1.5px;"/><path d="M1720.54,680l19.477,-9" style="fill:none;stroke:#000;stroke-width:1.5px;"/><path d="M1651.34,664l17.948,-10" style="fill:none;stroke:#000;stroke-width:1.5px;"/><path d="M1813.4,564l20.082,-10.599" style="fill:none;stroke:#000;stroke-width:1.5px;"/><text x="111.058px" y="790.805px" style="font-family:'RobotoCondensed-Regular', 'Roboto Condensed';font-size:20px;">P-35</text><text x="49.117px" y="705.805px" style="font-family:'RobotoCondensed-Regular', 'Roboto Condensed';font-size:20px;">P-34</text><text x="253.859px" y="700.039px" style="font-family:'RobotoCondensed-Regular', 'Roboto Condensed';font-size:20px;">P-33</text><text x="277.467px" y="673.805px" style="font-family:'RobotoCondensed-Regular', 'Roboto Condensed';font-size:20px;">P-32</text><text x="378.467px" y="552.023px" style="font-family:'RobotoCondensed-Regular', 'Roboto Condensed';font-size:20px;">P-20</text><text x="393.311px" y="361.805px" style="font-family:'RobotoCondensed-Regular', 'Roboto Condensed';font-size:20px;">P-19</text><text x="399.467px" y="317.081px" style="font-family:'RobotoCondensed-Regular', 'Roboto Condensed';font-size:20px;">P-18</text><text x="416.49px" y="277.319px" style="font-family:'RobotoCondensed-Regular', 'Roboto Condensed';font-size:20px;">P-17</text><text x="456.373px" y="216.196px" style="font-family:'RobotoCondensed-Regular', 'Roboto Condensed';font-size:20px;">P-16</text><text x="476.467px" y="151.084px" style="font-family:'RobotoCondensed-Regular', 'Roboto Condensed';font-size:20px;">P-15</text><text x="355.218px" y="200.188px" style="font-family:'RobotoCondensed-Regular', 'Roboto Condensed';font-size:20px;">P-21</text><text x="462.297px" y="38.853px" style="font-family:'RobotoCondensed-Regular', 'Roboto Condensed';font-size:20px;">P-22</text><text x="570.467px" y="443px" style="font-family:'RobotoCondensed-Regular', 'Roboto Condensed';font-size:20px;">P-12</text><text x="470.711px" y="782.734px" style="font-family:'RobotoCondensed-Regular', 'Roboto Condensed';font-size:20px;">P-30</text><text x="546.452px" y="755.414px" style="font-family:'RobotoCondensed-Regular', 'Roboto Condensed';font-size:20px;">P-31</text><text x="688.793px" y="802.414px" style="font-family:'RobotoCondensed-Regular', 'Roboto Condensed';font-size:20px;">P-28</text><text x="650.897px" y="643.38px" style="font-family:'RobotoCondensed-Regular', 'Roboto Condensed';font-size:20px;">P-11</text><text x="751.467px" y="635px" style="font-family:'RobotoCondensed-Regular', 'Roboto Condensed';font-size:20px;">P-10</text><text x="819.467px" y="452.764px" style="font-family:'RobotoCondensed-Regular', 'Roboto Condensed';font-size:20px;">P-9</text><text x="753.467px" y="726.47px" style="font-family:'RobotoCondensed-Regular', 'Roboto Condensed';font-size:20px;">P-37</text><text x="773.525px" y="864px" style="font-family:'RobotoCondensed-Regular', 'Roboto Condensed';font-size:20px;">P-26</text><text x="1053.55px" y="597.523px" style="font-family:'RobotoCondensed-Regular', 'Roboto Condensed';font-size:20px;">P-6</text><text x="990.467px" y="714.805px" style="font-family:'RobotoCondensed-Regular', 'Roboto Condensed';font-size:20px;">P-7</text><text x="1109.07px" y="753.758px" style="font-family:'RobotoCondensed-Regular', 'Roboto Condensed';font-size:20px;">P-41</text><text x="1109.07px" y="803px" style="font-family:'RobotoCondensed-Regular', 'Roboto Condensed';font-size:20px;">P-39</text><text x="1373.4px" y="939.508px" style="font-family:'RobotoCondensed-Regular', 'Roboto Condensed';font-size:14.685px;">O-4</text><g transform="matrix(0.265021,-0.964243,0.964243,0.265021,-700.301,382.156)"><text x="274.631px" y="1166.16px" style="font-family:'RobotoCondensed-Bold', 'Roboto Condensed';font-weight:700;font-size:16.825px;">Mur<tspan x="301.002px " y="1166.16px ">a</tspan>lla P<tspan x="338.661px " y="1166.16px ">o</tspan>niente</text></g><g transform="matrix(0.265021,-0.964243,0.964243,0.265021,-700.301,382.156)"><text x="274.631px" y="1166.16px" style="font-family:'RobotoCondensed-Bold', 'Roboto Condensed';font-weight:700;font-size:16.825px;">Mur<tspan x="301.002px " y="1166.16px ">a</tspan>lla P<tspan x="338.661px " y="1166.16px ">o</tspan>niente</text></g><text x="796.246px" y="581.64px" style="font-family:'BebasKai', 'Bebas Kai', fantasy;font-size:30px;">PLA<tspan x="831.586px 842.086px 854.236px 859.636px 870.496px " y="581.64px 581.64px 581.64px 581.64px 581.64px ">ZA SO</tspan>L</text><text x="670.941px" y="76.852px" style="font-family:'BebasKai', 'Bebas Kai', fantasy;font-size:64px;">Centro ceremonial</text><text x="1548.54px" y="390.428px" style="font-family:'BebasKai', 'Bebas Kai', fantasy;font-size:64px;">a<tspan x="1574.78px " y="390.428px ">c</tspan>róp<tspan x="1682.3px " y="390.428px ">o</tspan>lis</text><g transform="matrix(0.371164,-0.928567,0.928567,0.371164,-887.184,1167.93)"><text x="1183.17px" y="1820.31px" style="font-family:'BebasKai', 'Bebas Kai', fantasy;font-size:36px;">Pla<tspan x="1225.58px 1238.18px 1252.76px 1259.6px 1274.65px 1289.59px 1300.86px " y="1820.31px 1820.31px 1820.31px 1820.31px 1820.31px 1820.31px 1820.31px ">za Gálv</tspan>ez</text></g><text x="346.714px" y="706.78px" style="font-family:'BebasKai', 'Bebas Kai', fantasy;font-size:18px;fill:#033c71;">Museo</text><g transform="matrix(1,0,0,1,-230.477,-96.2517)"><text x="764.457px" y="581.318px" style="font-family:'BebasKai', 'Bebas Kai', fantasy;font-size:16px;fill:#033c71;">Juego de pelot<tspan x="845.529px " y="581.318px ">a</tspan></text><text x="764.457px" y="597.318px" style="font-family:'BebasKai', 'Bebas Kai', fantasy;font-size:16px;fill:#033c71;">poniente</text></g><g transform="matrix(0.977931,0.20893,-0.20893,0.977931,6.02491,-173.845)"><text x="1590.36px" y="522.914px" style="font-family:'BebasKai', 'Bebas Kai', fantasy;font-size:16px;fill:#033c71;">Area<tspan x="1616.54px " y="522.914px "> </tspan>del<tspan x="1638.06px 1641.1px 1647.1px " y="522.914px 522.914px 522.914px "> pa</tspan>lacio real</text></g><g transform="matrix(1,0,0,1,351.106,-287.332)"><text x="764.457px" y="581.318px" style="font-family:'BebasKai', 'Bebas Kai', fantasy;font-size:16px;fill:#033c71;">Juego de pelot<tspan x="845.529px " y="581.318px ">a</tspan></text><text x="764.457px" y="597.318px" style="font-family:'BebasKai', 'Bebas Kai', fantasy;font-size:16px;fill:#033c71;">nor<tspan x="785.465px " y="597.318px ">t</tspan>e</text></g><text x="875.284px" y="773.86px" style="font-family:'BebasKai', 'Bebas Kai', fantasy;font-size:14px;fill:#033c71;">Piramide princip<tspan x="956.176px " y="773.86px ">a</tspan>l</text><g transform="matrix(0.265021,-0.964243,0.964243,0.265021,-318.317,1388.61)"><text x="1125.82px" y="1418.82px" style="font-family:'RobotoCondensed-Bold', 'Roboto Condensed';font-weight:700;font-size:16.825px;">T<tspan x="1134.22px " y="1418.82px ">e</tspan>rr<tspan x="1153.18px " y="1418.82px ">a</tspan>za</text></g><g transform="matrix(0.176884,-0.984232,0.984232,0.176884,-687.484,786.154)"><text x="500.375px" y="1319.81px" style="font-family:'RobotoCondensed-Regular', 'Roboto Condensed';font-size:16.825px;">(terr<tspan x="528.414px " y="1319.81px ">a</tspan>za)</text></g><g transform="matrix(0.176884,-0.984232,0.984232,0.176884,-1005.87,949.147)"><text x="438.631px" y="1591.66px" style="font-family:'RobotoCondensed-Regular', 'Roboto Condensed';font-size:16.825px;">(terr<tspan x="466.67px " y="1591.66px ">a</tspan>za)</text></g><g transform="matrix(0.974006,0.226522,-0.226522,0.974006,-52.7653,-127.699)"><text x="904.128px" y="221.949px" style="font-family:'RobotoCondensed-Bold', 'Roboto Condensed';font-weight:700;font-size:16.825px;">Mur<tspan x="930.499px " y="221.949px ">a</tspan>lla Nor<tspan x="983.357px " y="221.949px ">t</tspan>e</text></g><g transform="matrix(0.974006,0.226522,-0.226522,0.974006,86.926,-84.7307)"><text x="786.752px" y="852.096px" style="font-family:'RobotoCondensed-Bold', 'Roboto Condensed';font-weight:700;font-size:16.825px;">Mur<tspan x="813.123px " y="852.096px ">a</tspan>lla Sur</text></g><text x="1023.37px" y="871.836px" style="font-family:'RobotoCondensed-Bold', 'Roboto Condensed';font-weight:700;font-size:16.825px;">&quot;Patio Sur<tspan x="1090.6px " y="871.836px ">e</tspan>ste<tspan x="1119.39px " y="871.836px ">&quot;</tspan></text><text x="912.717px" y="403.687px" style="font-family:'RobotoCondensed-Regular', 'Roboto Condensed';font-size:16.825px;">T<tspan x="920.661px " y="403.687px ">e</tspan>maz<tspan x="956.513px " y="403.687px ">c</tspan>al</text><text x="607.616px" y="251.405px" style="font-family:'RobotoCondensed-Regular', 'Roboto Condensed';font-size:11.554px;">Dr<tspan x="617.619px " y="251.405px ">e</tspan>naje</text><text x="351.756px" y="821.535px" style="font-family:'RobotoCondensed-Regular', 'Roboto Condensed';font-size:11.554px;">Dr<tspan x="361.758px " y="821.535px ">e</tspan>naje</text><g transform="matrix(0.640529,0.767934,-0.767934,0.640529,28.853,49.3375)"><text x="561.304px" y="307.231px" style="font-family:'RobotoCondensed-Bold', 'Roboto Condensed';font-weight:700;font-size:15px;">Estacionamient<tspan x="653.582px " y="307.231px ">o</tspan></text></g><text x="441.92px" y="714.327px" style="font-family:'RobotoCondensed-Regular', 'Roboto Condensed';font-size:11.554px;">Dr<tspan x="451.922px " y="714.327px ">e</tspan>naje</text><text x="1133.47px" y="694.826px" style="font-family:'RobotoCondensed-Regular', 'Roboto Condensed';font-size:20px;">P-40</text><text x="941.971px" y="846.08px" style="font-family:'RobotoCondensed-Regular', 'Roboto Condensed';font-size:20px;">P-8</text><text x="1033.82px" y="396.324px" style="font-family:'RobotoCondensed-Regular', 'Roboto Condensed';font-size:20px;">P-5</text><g transform="matrix(0.163708,-0.986509,0.986509,0.163708,-72.3243,486.57)"><text x="361.88px" y="1079.33px" style="font-family:'RobotoCondensed-Regular', 'Roboto Condensed';font-size:20px;">P-4</text></g><g transform="matrix(0.163708,-0.986509,0.986509,0.163708,-46.341,528.002)"><text x="399.309px" y="1084.72px" style="font-family:'RobotoCondensed-Regular', 'Roboto Condensed';font-size:20px;">P-3</text></g><text x="752.956px" y="909.414px" style="font-family:'RobotoCondensed-Regular', 'Roboto Condensed';font-size:20px;">P-24</text><text x="846.248px" y="898.776px" style="font-family:'RobotoCondensed-Regular', 'Roboto Condensed';font-size:20px;">P-25</text><text x="823.467px" y="707.805px" style="font-family:'RobotoCondensed-Regular', 'Roboto Condensed';font-size:20px;">P-36</text><text x="875.045px" y="236px" style="font-family:'RobotoCondensed-Regular', 'Roboto Condensed';font-size:20px;">P-2</text><text x="890.937px" y="170.938px" style="font-family:'RobotoCondensed-Regular', 'Roboto Condensed';font-size:20px;">P-1</text><text x="672.352px" y="889.96px" style="font-family:'RobotoCondensed-Regular', 'Roboto Condensed';font-size:20px;">P-27</text><text x="482.995px" y="844.297px" style="font-family:'RobotoCondensed-Regular', 'Roboto Condensed';font-size:20px;">P-23</text><g transform="matrix(0.165236,-0.986254,0.986254,0.165236,-903.971,457.733)"><text x="-70.527px" y="1556.26px" style="font-family:'RobotoCondensed-Regular', 'Roboto Condensed';font-size:20px;">P-29</text></g><g transform="matrix(0.165236,-0.986254,0.986254,0.165236,-581.515,296.888)"><text x="-4.317px" y="1285.35px" style="font-family:'RobotoCondensed-Regular', 'Roboto Condensed';font-size:20px;">P-38</text></g><g transform="matrix(0.229695,-0.973263,0.973263,0.229695,-773.282,81.7094)"><text x="-223.964px" y="1322.75px" style="font-family:'RobotoCondensed-Regular', 'Roboto Condensed';font-size:20px;">P-14</text></g><g transform="matrix(0.229695,-0.973263,0.973263,0.229695,-745.872,140.733)"><text x="-172.972px" y="1334.95px" style="font-family:'RobotoCondensed-Regular', 'Roboto Condensed';font-size:20px;">P-13</text></g></g></svg>